<svg xmlns="http://www.w3.org/2000/svg" viewBox="0 0 320 440">
<rect width="320" height="440" fill="#0f2a48"/>
<rect x="40" y="38" width="240" height="14" fill="rgba(255,255,255,.08)"/>
<rect x="40" y="388" width="240" height="14" fill="rgba(255,255,255,.08)"/>
<rect x="88" y="52" width="144" height="336" fill="none" stroke="rgba(255,255,255,.32)" stroke-width="1.4" stroke-dasharray="5 4"/>
<line x1="100" y1="52" x2="100" y2="388" stroke="rgba(255,255,255,.16)" stroke-width="1.5"/>
<line x1="220" y1="52" x2="220" y2="388" stroke="rgba(255,255,255,.16)" stroke-width="1.5"/>
<line x1="76" y1="52" x2="86" y2="52" stroke="rgba(255,255,255,.4)" stroke-width="1.2"/>
<line x1="76" y1="52" x2="76" y2="176" stroke="rgba(255,255,255,.4)" stroke-width="1.2"/>
<line x1="70" y1="176" x2="82" y2="176" stroke="rgba(255,255,255,.4)" stroke-width="1.2"/>
<text x="76" y="118" fill="#a9b8ca" font-family="Inter,Arial,sans-serif" font-size="10" font-weight="700" letter-spacing="1" text-anchor="middle" transform="rotate(-90 76 118)">CABECEIRA</text>
<rect x="106" y="176" width="108" height="164" rx="2" fill="rgba(201,162,39,.16)" stroke="#c9a227" stroke-width="2.2"/>
<rect x="116" y="184" width="88" height="9" rx="3" fill="#f3e6bd"/>
<line x1="160" y1="197" x2="160" y2="328" stroke="rgba(255,255,255,.32)" stroke-width="1"/>
<line x1="118" y1="266" x2="150" y2="266" stroke="rgba(255,255,255,.5)" stroke-width="2.4" stroke-linecap="round"/>
<circle cx="160" cy="218" r="9.5" fill="#dfe8f0"/>
<path d="M147 294 C147 264 173 264 173 294 L173 310 C173 316 147 316 147 310 Z" fill="#dfe8f0"/>
<line x1="106" y1="340" x2="214" y2="340" stroke="#c9a227" stroke-width="2.4"/>
<text x="160" y="358" fill="#e7edf5" font-family="Inter,Arial,sans-serif" font-size="12" font-weight="700" text-anchor="middle">Cabine 3 a 5 pessoas</text>
<line x1="88" y1="402" x2="88" y2="414" stroke="rgba(255,255,255,.4)" stroke-width="1.2"/>
<line x1="232" y1="402" x2="232" y2="414" stroke="rgba(255,255,255,.4)" stroke-width="1.2"/>
<line x1="88" y1="408" x2="232" y2="408" stroke="rgba(255,255,255,.4)" stroke-width="1.2"/>
<text x="160" y="424" fill="#a9b8ca" font-family="Inter,Arial,sans-serif" font-size="10" font-weight="700" letter-spacing="1" text-anchor="middle">FOSSO 800&#160;MM</text>
</svg>
